{
	"asset":{
		"generator":"Khronos glTF Blender I/O v4.5.48",
		"version":"2.0"
	},
	"scene":0,
	"scenes":[
		{
			"name":"Scene",
			"nodes":[
				1
			]
		}
	],
	"nodes":[
		{
			"mesh":0,
			"name":"Cube.004-convcolonly",
			"scale":[
				0.699999988079071,
				0.699999988079071,
				0.699999988079071
			]
		},
		{
			"children":[
				0
			],
			"mesh":1,
			"name":"Cube.004"
		}
	],
	"materials":[
		{
			"doubleSided":true,
			"name":"Cube.001",
			"normalTexture":{
				"index":0
			},
			"pbrMetallicRoughness":{
				"baseColorTexture":{
					"index":1
				},
				"metallicFactor":0,
				"roughnessFactor":0.46710526943206787
			}
		},
		{
			"doubleSided":true,
			"name":"Cube.004",
			"pbrMetallicRoughness":{
				"baseColorTexture":{
					"index":2
				},
				"metallicFactor":0
			}
		}
	],
	"meshes":[
		{
			"name":"Cube.006",
			"primitives":[
				{
					"attributes":{
						"POSITION":0,
						"NORMAL":1,
						"TEXCOORD_0":2
					},
					"indices":3
				}
			]
		},
		{
			"name":"Cube.004",
			"primitives":[
				{
					"attributes":{
						"POSITION":4,
						"NORMAL":5,
						"TEXCOORD_0":6,
						"TEXCOORD_1":7
					},
					"indices":8,
					"material":0
				},
				{
					"attributes":{
						"POSITION":9,
						"NORMAL":10,
						"TEXCOORD_0":11,
						"TEXCOORD_1":12
					},
					"indices":13,
					"material":1
				}
			]
		}
	],
	"textures":[
		{
			"sampler":0,
			"source":0
		},
		{
			"sampler":0,
			"source":1
		},
		{
			"sampler":0,
			"source":2
		}
	],
	"images":[
		{
			"mimeType":"image/png",
			"name":"Ucupaint Cube",
			"uri":"Ucupaint%20Cube.png"
		},
		{
			"mimeType":"image/png",
			"name":"Ucupaint Cube",
			"uri":"Ucupaint%20Cube-1.png"
		},
		{
			"mimeType":"image/png",
			"name":"Ucupaint Cube",
			"uri":"Ucupaint%20Cube-2.png"
		}
	],
	"accessors":[
		{
			"bufferView":0,
			"componentType":5126,
			"count":24,
			"max":[
				2.5,
				10,
				0.5
			],
			"min":[
				-2.5,
				0,
				-0.5
			],
			"type":"VEC3"
		},
		{
			"bufferView":1,
			"componentType":5126,
			"count":24,
			"type":"VEC3"
		},
		{
			"bufferView":2,
			"componentType":5126,
			"count":24,
			"type":"VEC2"
		},
		{
			"bufferView":3,
			"componentType":5123,
			"count":36,
			"type":"SCALAR"
		},
		{
			"bufferView":4,
			"componentType":5126,
			"count":191,
			"max":[
				1.75,
				7,
				0.3499999940395355
			],
			"min":[
				-1.75,
				0,
				-0.3499999940395355
			],
			"type":"VEC3"
		},
		{
			"bufferView":5,
			"componentType":5126,
			"count":191,
			"type":"VEC3"
		},
		{
			"bufferView":6,
			"componentType":5126,
			"count":191,
			"type":"VEC2"
		},
		{
			"bufferView":7,
			"componentType":5126,
			"count":191,
			"type":"VEC2"
		},
		{
			"bufferView":8,
			"componentType":5123,
			"count":486,
			"type":"SCALAR"
		},
		{
			"bufferView":9,
			"componentType":5126,
			"count":25,
			"max":[
				1.654140830039978,
				3.99983286857605,
				0.030953697860240936
			],
			"min":[
				-1.654140830039978,
				3.00016713142395,
				-0.1823876053094864
			],
			"type":"VEC3"
		},
		{
			"bufferView":10,
			"componentType":5126,
			"count":25,
			"type":"VEC3"
		},
		{
			"bufferView":11,
			"componentType":5126,
			"count":25,
			"type":"VEC2"
		},
		{
			"bufferView":12,
			"componentType":5126,
			"count":25,
			"type":"VEC2"
		},
		{
			"bufferView":13,
			"componentType":5123,
			"count":96,
			"type":"SCALAR"
		}
	],
	"bufferViews":[
		{
			"buffer":0,
			"byteLength":288,
			"byteOffset":0,
			"target":34962
		},
		{
			"buffer":0,
			"byteLength":288,
			"byteOffset":288,
			"target":34962
		},
		{
			"buffer":0,
			"byteLength":192,
			"byteOffset":576,
			"target":34962
		},
		{
			"buffer":0,
			"byteLength":72,
			"byteOffset":768,
			"target":34963
		},
		{
			"buffer":0,
			"byteLength":2292,
			"byteOffset":840,
			"target":34962
		},
		{
			"buffer":0,
			"byteLength":2292,
			"byteOffset":3132,
			"target":34962
		},
		{
			"buffer":0,
			"byteLength":1528,
			"byteOffset":5424,
			"target":34962
		},
		{
			"buffer":0,
			"byteLength":1528,
			"byteOffset":6952,
			"target":34962
		},
		{
			"buffer":0,
			"byteLength":972,
			"byteOffset":8480,
			"target":34963
		},
		{
			"buffer":0,
			"byteLength":300,
			"byteOffset":9452,
			"target":34962
		},
		{
			"buffer":0,
			"byteLength":300,
			"byteOffset":9752,
			"target":34962
		},
		{
			"buffer":0,
			"byteLength":200,
			"byteOffset":10052,
			"target":34962
		},
		{
			"buffer":0,
			"byteLength":200,
			"byteOffset":10252,
			"target":34962
		},
		{
			"buffer":0,
			"byteLength":192,
			"byteOffset":10452,
			"target":34963
		}
	],
	"samplers":[
		{
			"magFilter":9729,
			"minFilter":9987
		}
	],
	"buffers":[
		{
			"byteLength":10644,
			"uri":"Cube_004.bin"
		}
	]
}
