{
	"asset":{
		"generator":"Khronos glTF Blender I/O v4.5.48",
		"version":"2.0"
	},
	"scene":0,
	"scenes":[
		{
			"name":"Scene",
			"nodes":[
				0
			]
		}
	],
	"nodes":[
		{
			"mesh":0,
			"name":"Cube.007"
		}
	],
	"materials":[
		{
			"doubleSided":true,
			"name":"Material.001",
			"pbrMetallicRoughness":{
				"baseColorFactor":[
					0.3162073493003845,
					0.3162073493003845,
					0.3162073493003845,
					1
				],
				"roughnessFactor":0.5
			}
		}
	],
	"meshes":[
		{
			"name":"Cube.009",
			"primitives":[
				{
					"attributes":{
						"POSITION":0,
						"NORMAL":1,
						"TEXCOORD_0":2,
						"TEXCOORD_1":3
					},
					"indices":4,
					"material":0
				}
			]
		}
	],
	"accessors":[
		{
			"bufferView":0,
			"componentType":5126,
			"count":170,
			"max":[
				1.75,
				7,
				0.09912965446710587
			],
			"min":[
				-1.75,
				0,
				-0.3499999940395355
			],
			"type":"VEC3"
		},
		{
			"bufferView":1,
			"componentType":5126,
			"count":170,
			"type":"VEC3"
		},
		{
			"bufferView":2,
			"componentType":5126,
			"count":170,
			"type":"VEC2"
		},
		{
			"bufferView":3,
			"componentType":5126,
			"count":170,
			"type":"VEC2"
		},
		{
			"bufferView":4,
			"componentType":5123,
			"count":414,
			"type":"SCALAR"
		}
	],
	"bufferViews":[
		{
			"buffer":0,
			"byteLength":2040,
			"byteOffset":0,
			"target":34962
		},
		{
			"buffer":0,
			"byteLength":2040,
			"byteOffset":2040,
			"target":34962
		},
		{
			"buffer":0,
			"byteLength":1360,
			"byteOffset":4080,
			"target":34962
		},
		{
			"buffer":0,
			"byteLength":1360,
			"byteOffset":5440,
			"target":34962
		},
		{
			"buffer":0,
			"byteLength":828,
			"byteOffset":6800,
			"target":34963
		}
	],
	"buffers":[
		{
			"byteLength":7628,
			"uri":"Cube_007.bin"
		}
	]
}
