{
	"asset":{
		"generator":"Khronos glTF Blender I/O v4.5.48",
		"version":"2.0"
	},
	"scene":0,
	"scenes":[
		{
			"name":"Scene",
			"nodes":[
				1
			]
		}
	],
	"nodes":[
		{
			"mesh":0,
			"name":"Cube.005-convcolonly",
			"scale":[
				0.699999988079071,
				0.699999988079071,
				0.699999988079071
			]
		},
		{
			"children":[
				0
			],
			"mesh":1,
			"name":"Cube.005"
		}
	],
	"materials":[
		{
			"doubleSided":true,
			"name":"Material.001",
			"pbrMetallicRoughness":{
				"baseColorFactor":[
					0.3162073493003845,
					0.3162073493003845,
					0.3162073493003845,
					1
				],
				"roughnessFactor":0.5
			}
		},
		{
			"doubleSided":true,
			"name":"Material.002",
			"pbrMetallicRoughness":{
				"baseColorFactor":[
					0.06212349981069565,
					0.01327764056622982,
					0,
					1
				],
				"metallicFactor":0,
				"roughnessFactor":0.5
			}
		}
	],
	"meshes":[
		{
			"name":"Cube.007",
			"primitives":[
				{
					"attributes":{
						"POSITION":0,
						"NORMAL":1,
						"TEXCOORD_0":2
					},
					"indices":3
				}
			]
		},
		{
			"name":"Cube.005",
			"primitives":[
				{
					"attributes":{
						"POSITION":4,
						"NORMAL":5,
						"TEXCOORD_0":6,
						"TEXCOORD_1":7
					},
					"indices":8,
					"material":0
				},
				{
					"attributes":{
						"POSITION":9,
						"NORMAL":10,
						"TEXCOORD_0":11,
						"TEXCOORD_1":12
					},
					"indices":13,
					"material":1
				}
			]
		}
	],
	"accessors":[
		{
			"bufferView":0,
			"componentType":5126,
			"count":24,
			"max":[
				2.5,
				10,
				0.5
			],
			"min":[
				-2.5,
				0,
				-0.5
			],
			"type":"VEC3"
		},
		{
			"bufferView":1,
			"componentType":5126,
			"count":24,
			"type":"VEC3"
		},
		{
			"bufferView":2,
			"componentType":5126,
			"count":24,
			"type":"VEC2"
		},
		{
			"bufferView":3,
			"componentType":5123,
			"count":36,
			"type":"SCALAR"
		},
		{
			"bufferView":4,
			"componentType":5126,
			"count":122,
			"max":[
				1.75,
				7,
				0.09912965446710587
			],
			"min":[
				-1.75,
				0,
				-0.3499999940395355
			],
			"type":"VEC3"
		},
		{
			"bufferView":5,
			"componentType":5126,
			"count":122,
			"type":"VEC3"
		},
		{
			"bufferView":6,
			"componentType":5126,
			"count":122,
			"type":"VEC2"
		},
		{
			"bufferView":7,
			"componentType":5126,
			"count":122,
			"type":"VEC2"
		},
		{
			"bufferView":8,
			"componentType":5123,
			"count":270,
			"type":"SCALAR"
		},
		{
			"bufferView":9,
			"componentType":5126,
			"count":96,
			"max":[
				1.75,
				7,
				0.09912965446710587
			],
			"min":[
				-1.75,
				0,
				-2.086162531611535e-08
			],
			"type":"VEC3"
		},
		{
			"bufferView":10,
			"componentType":5126,
			"count":96,
			"type":"VEC3"
		},
		{
			"bufferView":11,
			"componentType":5126,
			"count":96,
			"type":"VEC2"
		},
		{
			"bufferView":12,
			"componentType":5126,
			"count":96,
			"type":"VEC2"
		},
		{
			"bufferView":13,
			"componentType":5123,
			"count":144,
			"type":"SCALAR"
		}
	],
	"bufferViews":[
		{
			"buffer":0,
			"byteLength":288,
			"byteOffset":0,
			"target":34962
		},
		{
			"buffer":0,
			"byteLength":288,
			"byteOffset":288,
			"target":34962
		},
		{
			"buffer":0,
			"byteLength":192,
			"byteOffset":576,
			"target":34962
		},
		{
			"buffer":0,
			"byteLength":72,
			"byteOffset":768,
			"target":34963
		},
		{
			"buffer":0,
			"byteLength":1464,
			"byteOffset":840,
			"target":34962
		},
		{
			"buffer":0,
			"byteLength":1464,
			"byteOffset":2304,
			"target":34962
		},
		{
			"buffer":0,
			"byteLength":976,
			"byteOffset":3768,
			"target":34962
		},
		{
			"buffer":0,
			"byteLength":976,
			"byteOffset":4744,
			"target":34962
		},
		{
			"buffer":0,
			"byteLength":540,
			"byteOffset":5720,
			"target":34963
		},
		{
			"buffer":0,
			"byteLength":1152,
			"byteOffset":6260,
			"target":34962
		},
		{
			"buffer":0,
			"byteLength":1152,
			"byteOffset":7412,
			"target":34962
		},
		{
			"buffer":0,
			"byteLength":768,
			"byteOffset":8564,
			"target":34962
		},
		{
			"buffer":0,
			"byteLength":768,
			"byteOffset":9332,
			"target":34962
		},
		{
			"buffer":0,
			"byteLength":288,
			"byteOffset":10100,
			"target":34963
		}
	],
	"buffers":[
		{
			"byteLength":10388,
			"uri":"Cube_005.bin"
		}
	]
}
