{
	"asset":{
		"generator":"Khronos glTF Blender I/O v4.5.48",
		"version":"2.0"
	},
	"scene":0,
	"scenes":[
		{
			"name":"Scene",
			"nodes":[
				0
			]
		}
	],
	"nodes":[
		{
			"mesh":0,
			"name":"Cylinder-col"
		}
	],
	"materials":[
		{
			"doubleSided":true,
			"name":"Material.003",
			"pbrMetallicRoughness":{
				"baseColorFactor":[
					0.07198846340179443,
					0.07198846340179443,
					0.07198846340179443,
					1
				],
				"roughnessFactor":0.5
			}
		},
		{
			"doubleSided":true,
			"name":"Material.004",
			"pbrMetallicRoughness":{
				"baseColorFactor":[
					0.057674236595630646,
					0.5246555209159851,
					0.8001892566680908,
					1
				],
				"metallicFactor":0,
				"roughnessFactor":0.0079365074634552
			}
		}
	],
	"meshes":[
		{
			"name":"Cylinder",
			"primitives":[
				{
					"attributes":{
						"POSITION":0,
						"NORMAL":1,
						"TEXCOORD_0":2
					},
					"indices":3,
					"material":0
				},
				{
					"attributes":{
						"POSITION":4,
						"NORMAL":5,
						"TEXCOORD_0":6
					},
					"indices":7,
					"material":1
				}
			]
		}
	],
	"accessors":[
		{
			"bufferView":0,
			"componentType":5126,
			"count":952,
			"max":[
				5.387518882751465,
				9.85444450378418,
				4.699727535247803
			],
			"min":[
				-4.69968318939209,
				0,
				-4.6997270584106445
			],
			"type":"VEC3"
		},
		{
			"bufferView":1,
			"componentType":5126,
			"count":952,
			"type":"VEC3"
		},
		{
			"bufferView":2,
			"componentType":5126,
			"count":952,
			"type":"VEC2"
		},
		{
			"bufferView":3,
			"componentType":5123,
			"count":2715,
			"type":"SCALAR"
		},
		{
			"bufferView":4,
			"componentType":5126,
			"count":105,
			"max":[
				1.9201323986053467,
				6.981071472167969,
				1.9200901985168457
			],
			"min":[
				-1.9200466871261597,
				0.8544448614120483,
				-1.9200892448425293
			],
			"type":"VEC3"
		},
		{
			"bufferView":5,
			"componentType":5126,
			"count":105,
			"type":"VEC3"
		},
		{
			"bufferView":6,
			"componentType":5126,
			"count":105,
			"type":"VEC2"
		},
		{
			"bufferView":7,
			"componentType":5123,
			"count":273,
			"type":"SCALAR"
		}
	],
	"bufferViews":[
		{
			"buffer":0,
			"byteLength":11424,
			"byteOffset":0,
			"target":34962
		},
		{
			"buffer":0,
			"byteLength":11424,
			"byteOffset":11424,
			"target":34962
		},
		{
			"buffer":0,
			"byteLength":7616,
			"byteOffset":22848,
			"target":34962
		},
		{
			"buffer":0,
			"byteLength":5430,
			"byteOffset":30464,
			"target":34963
		},
		{
			"buffer":0,
			"byteLength":1260,
			"byteOffset":35896,
			"target":34962
		},
		{
			"buffer":0,
			"byteLength":1260,
			"byteOffset":37156,
			"target":34962
		},
		{
			"buffer":0,
			"byteLength":840,
			"byteOffset":38416,
			"target":34962
		},
		{
			"buffer":0,
			"byteLength":546,
			"byteOffset":39256,
			"target":34963
		}
	],
	"buffers":[
		{
			"byteLength":39804,
			"uri":"Cylinder.bin"
		}
	]
}
