{
	"asset":{
		"generator":"Khronos glTF Blender I/O v4.5.48",
		"version":"2.0"
	},
	"scene":0,
	"scenes":[
		{
			"name":"Scene",
			"nodes":[
				1
			]
		}
	],
	"nodes":[
		{
			"mesh":0,
			"name":"af-colonly",
			"scale":[
				0.699999988079071,
				0.699999988079071,
				0.699999988079071
			],
			"translation":[
				-0.022985458374023438,
				0,
				0.0033855438232421875
			]
		},
		{
			"children":[
				0
			],
			"mesh":1,
			"name":"doorframe"
		}
	],
	"materials":[
		{
			"doubleSided":true,
			"name":"Cube.001",
			"normalTexture":{
				"index":0
			},
			"pbrMetallicRoughness":{
				"baseColorTexture":{
					"index":1
				},
				"metallicFactor":0,
				"roughnessFactor":0.46710526943206787
			}
		},
		{
			"doubleSided":true,
			"name":"Cube.004",
			"pbrMetallicRoughness":{
				"baseColorTexture":{
					"index":2
				},
				"metallicFactor":0
			}
		}
	],
	"meshes":[
		{
			"name":"Cube.013",
			"primitives":[
				{
					"attributes":{
						"POSITION":0,
						"NORMAL":1,
						"TEXCOORD_0":2
					},
					"indices":3
				}
			]
		},
		{
			"name":"Cube.011",
			"primitives":[
				{
					"attributes":{
						"POSITION":4,
						"NORMAL":5,
						"TEXCOORD_0":6,
						"TEXCOORD_1":7,
						"TEXCOORD_2":8
					},
					"indices":9,
					"material":0
				},
				{
					"attributes":{
						"POSITION":10,
						"NORMAL":11,
						"TEXCOORD_0":12,
						"TEXCOORD_1":13,
						"TEXCOORD_2":14
					},
					"indices":15,
					"material":1
				}
			]
		}
	],
	"textures":[
		{
			"sampler":0,
			"source":0
		},
		{
			"sampler":0,
			"source":1
		},
		{
			"sampler":0,
			"source":2
		}
	],
	"images":[
		{
			"mimeType":"image/png",
			"name":"Ucupaint Cube",
			"uri":"Ucupaint%20Cube.png"
		},
		{
			"mimeType":"image/png",
			"name":"Ucupaint Cube",
			"uri":"Ucupaint%20Cube-1.png"
		},
		{
			"mimeType":"image/png",
			"name":"Ucupaint Cube",
			"uri":"Ucupaint%20Cube-2.png"
		}
	],
	"accessors":[
		{
			"bufferView":0,
			"componentType":5126,
			"count":58,
			"max":[
				2.5,
				10,
				0.5
			],
			"min":[
				-2.5,
				0,
				-0.5
			],
			"type":"VEC3"
		},
		{
			"bufferView":1,
			"componentType":5126,
			"count":58,
			"type":"VEC3"
		},
		{
			"bufferView":2,
			"componentType":5126,
			"count":58,
			"type":"VEC2"
		},
		{
			"bufferView":3,
			"componentType":5123,
			"count":120,
			"type":"SCALAR"
		},
		{
			"bufferView":4,
			"componentType":5126,
			"count":236,
			"max":[
				1.75,
				7,
				0.3499999940395355
			],
			"min":[
				-1.75,
				0,
				-0.3499999940395355
			],
			"type":"VEC3"
		},
		{
			"bufferView":5,
			"componentType":5126,
			"count":236,
			"type":"VEC3"
		},
		{
			"bufferView":6,
			"componentType":5126,
			"count":236,
			"type":"VEC2"
		},
		{
			"bufferView":7,
			"componentType":5126,
			"count":236,
			"type":"VEC2"
		},
		{
			"bufferView":8,
			"componentType":5126,
			"count":236,
			"type":"VEC2"
		},
		{
			"bufferView":9,
			"componentType":5123,
			"count":582,
			"type":"SCALAR"
		},
		{
			"bufferView":10,
			"componentType":5126,
			"count":25,
			"max":[
				1.654140830039978,
				3.99983286857605,
				0.030953697860240936
			],
			"min":[
				-1.654140830039978,
				3.00016713142395,
				-0.1823876053094864
			],
			"type":"VEC3"
		},
		{
			"bufferView":11,
			"componentType":5126,
			"count":25,
			"type":"VEC3"
		},
		{
			"bufferView":12,
			"componentType":5126,
			"count":25,
			"type":"VEC2"
		},
		{
			"bufferView":13,
			"componentType":5126,
			"count":25,
			"type":"VEC2"
		},
		{
			"bufferView":14,
			"componentType":5126,
			"count":25,
			"type":"VEC2"
		},
		{
			"bufferView":15,
			"componentType":5123,
			"count":96,
			"type":"SCALAR"
		}
	],
	"bufferViews":[
		{
			"buffer":0,
			"byteLength":696,
			"byteOffset":0,
			"target":34962
		},
		{
			"buffer":0,
			"byteLength":696,
			"byteOffset":696,
			"target":34962
		},
		{
			"buffer":0,
			"byteLength":464,
			"byteOffset":1392,
			"target":34962
		},
		{
			"buffer":0,
			"byteLength":240,
			"byteOffset":1856,
			"target":34963
		},
		{
			"buffer":0,
			"byteLength":2832,
			"byteOffset":2096,
			"target":34962
		},
		{
			"buffer":0,
			"byteLength":2832,
			"byteOffset":4928,
			"target":34962
		},
		{
			"buffer":0,
			"byteLength":1888,
			"byteOffset":7760,
			"target":34962
		},
		{
			"buffer":0,
			"byteLength":1888,
			"byteOffset":9648,
			"target":34962
		},
		{
			"buffer":0,
			"byteLength":1888,
			"byteOffset":11536,
			"target":34962
		},
		{
			"buffer":0,
			"byteLength":1164,
			"byteOffset":13424,
			"target":34963
		},
		{
			"buffer":0,
			"byteLength":300,
			"byteOffset":14588,
			"target":34962
		},
		{
			"buffer":0,
			"byteLength":300,
			"byteOffset":14888,
			"target":34962
		},
		{
			"buffer":0,
			"byteLength":200,
			"byteOffset":15188,
			"target":34962
		},
		{
			"buffer":0,
			"byteLength":200,
			"byteOffset":15388,
			"target":34962
		},
		{
			"buffer":0,
			"byteLength":200,
			"byteOffset":15588,
			"target":34962
		},
		{
			"buffer":0,
			"byteLength":192,
			"byteOffset":15788,
			"target":34963
		}
	],
	"samplers":[
		{
			"magFilter":9729,
			"minFilter":9987
		}
	],
	"buffers":[
		{
			"byteLength":15980,
			"uri":"doorframe.bin"
		}
	]
}
