{
	"asset":{
		"generator":"Khronos glTF Blender I/O v4.5.48",
		"version":"2.0"
	},
	"extensionsUsed":[
		"KHR_materials_emissive_strength"
	],
	"scene":0,
	"scenes":[
		{
			"name":"Scene",
			"nodes":[
				2
			]
		}
	],
	"nodes":[
		{
			"mesh":0,
			"name":"Cube",
			"translation":[
				0,
				6,
				0
			]
		},
		{
			"mesh":1,
			"name":"Torus",
			"translation":[
				0,
				2,
				0
			]
		},
		{
			"children":[
				0,
				1
			],
			"mesh":2,
			"name":"Cylinder",
			"translation":[
				-2,
				0,
				-1
			]
		}
	],
	"materials":[
		{
			"doubleSided":true,
			"name":"Metal",
			"pbrMetallicRoughness":{
				"baseColorFactor":[
					0.4823455512523651,
					0.4823455512523651,
					0.4823455512523651,
					1
				],
				"roughnessFactor":0.5
			}
		},
		{
			"doubleSided":true,
			"emissiveFactor":[
				1,
				0.735322117805481,
				0.4246750473976135
			],
			"extensions":{
				"KHR_materials_emissive_strength":{
					"emissiveStrength":3.6999998092651367
				}
			},
			"name":"Material",
			"pbrMetallicRoughness":{
				"baseColorFactor":[
					0,
					0,
					0,
					1
				]
			}
		}
	],
	"meshes":[
		{
			"name":"Cube",
			"primitives":[
				{
					"attributes":{
						"POSITION":0,
						"NORMAL":1,
						"TEXCOORD_0":2
					},
					"indices":3,
					"material":0
				}
			]
		},
		{
			"name":"Torus",
			"primitives":[
				{
					"attributes":{
						"POSITION":4,
						"NORMAL":5,
						"TEXCOORD_0":6
					},
					"indices":7,
					"material":0
				}
			]
		},
		{
			"name":"Cylinder",
			"primitives":[
				{
					"attributes":{
						"POSITION":8,
						"NORMAL":9,
						"TEXCOORD_0":10
					},
					"indices":11,
					"material":0
				},
				{
					"attributes":{
						"POSITION":12,
						"NORMAL":13,
						"TEXCOORD_0":14
					},
					"indices":15,
					"material":1
				}
			]
		}
	],
	"accessors":[
		{
			"bufferView":0,
			"componentType":5126,
			"count":48,
			"max":[
				0.5790182948112488,
				0.10956103354692459,
				0.5790185332298279
			],
			"min":[
				-0.5790188908576965,
				-0.1095614954829216,
				-0.5790186524391174
			],
			"type":"VEC3"
		},
		{
			"bufferView":1,
			"componentType":5126,
			"count":48,
			"type":"VEC3"
		},
		{
			"bufferView":2,
			"componentType":5126,
			"count":48,
			"type":"VEC2"
		},
		{
			"bufferView":3,
			"componentType":5123,
			"count":84,
			"type":"SCALAR"
		},
		{
			"bufferView":4,
			"componentType":5126,
			"count":2340,
			"max":[
				0.22499984502792358,
				4.193999290466309,
				0.22348152101039886
			],
			"min":[
				-0.22500021755695343,
				-0.22500000894069672,
				-0.2234811782836914
			],
			"type":"VEC3"
		},
		{
			"bufferView":5,
			"componentType":5126,
			"count":2340,
			"type":"VEC3"
		},
		{
			"bufferView":6,
			"componentType":5126,
			"count":2340,
			"type":"VEC2"
		},
		{
			"bufferView":7,
			"componentType":5123,
			"count":6480,
			"type":"SCALAR"
		},
		{
			"bufferView":8,
			"componentType":5126,
			"count":249,
			"max":[
				1.2000000476837158,
				2,
				1.2000000476837158
			],
			"min":[
				-1.2000000476837158,
				-1.700717568397522,
				-1.2000000476837158
			],
			"type":"VEC3"
		},
		{
			"bufferView":9,
			"componentType":5126,
			"count":249,
			"type":"VEC3"
		},
		{
			"bufferView":10,
			"componentType":5126,
			"count":249,
			"type":"VEC2"
		},
		{
			"bufferView":11,
			"componentType":5123,
			"count":756,
			"type":"SCALAR"
		},
		{
			"bufferView":12,
			"componentType":5126,
			"count":34,
			"max":[
				1.0593688488006592,
				1,
				1.0593688488006592
			],
			"min":[
				-1.0593688488006592,
				-1,
				-1.0593688488006592
			],
			"type":"VEC3"
		},
		{
			"bufferView":13,
			"componentType":5126,
			"count":34,
			"type":"VEC3"
		},
		{
			"bufferView":14,
			"componentType":5126,
			"count":34,
			"type":"VEC2"
		},
		{
			"bufferView":15,
			"componentType":5123,
			"count":96,
			"type":"SCALAR"
		}
	],
	"bufferViews":[
		{
			"buffer":0,
			"byteLength":576,
			"byteOffset":0,
			"target":34962
		},
		{
			"buffer":0,
			"byteLength":576,
			"byteOffset":576,
			"target":34962
		},
		{
			"buffer":0,
			"byteLength":384,
			"byteOffset":1152,
			"target":34962
		},
		{
			"buffer":0,
			"byteLength":168,
			"byteOffset":1536,
			"target":34963
		},
		{
			"buffer":0,
			"byteLength":28080,
			"byteOffset":1704,
			"target":34962
		},
		{
			"buffer":0,
			"byteLength":28080,
			"byteOffset":29784,
			"target":34962
		},
		{
			"buffer":0,
			"byteLength":18720,
			"byteOffset":57864,
			"target":34962
		},
		{
			"buffer":0,
			"byteLength":12960,
			"byteOffset":76584,
			"target":34963
		},
		{
			"buffer":0,
			"byteLength":2988,
			"byteOffset":89544,
			"target":34962
		},
		{
			"buffer":0,
			"byteLength":2988,
			"byteOffset":92532,
			"target":34962
		},
		{
			"buffer":0,
			"byteLength":1992,
			"byteOffset":95520,
			"target":34962
		},
		{
			"buffer":0,
			"byteLength":1512,
			"byteOffset":97512,
			"target":34963
		},
		{
			"buffer":0,
			"byteLength":408,
			"byteOffset":99024,
			"target":34962
		},
		{
			"buffer":0,
			"byteLength":408,
			"byteOffset":99432,
			"target":34962
		},
		{
			"buffer":0,
			"byteLength":272,
			"byteOffset":99840,
			"target":34962
		},
		{
			"buffer":0,
			"byteLength":192,
			"byteOffset":100112,
			"target":34963
		}
	],
	"buffers":[
		{
			"byteLength":100304,
			"uri":"Cylinder.bin"
		}
	]
}
