{
	"asset":{
		"generator":"Khronos glTF Blender I/O v4.5.48",
		"version":"2.0"
	},
	"extensionsUsed":[
		"KHR_materials_emissive_strength"
	],
	"scene":0,
	"scenes":[
		{
			"name":"Scene",
			"nodes":[
				0
			]
		}
	],
	"nodes":[
		{
			"mesh":0,
			"name":"TechCylinder-convcol"
		}
	],
	"materials":[
		{
			"doubleSided":true,
			"name":"Material.001",
			"pbrMetallicRoughness":{
				"baseColorFactor":[
					0.4675387740135193,
					0.4675387740135193,
					0.4675387740135193,
					1
				],
				"roughnessFactor":0.6574074029922485
			}
		},
		{
			"doubleSided":true,
			"emissiveFactor":[
				0.6348374485969543,
				1,
				0.10359165817499161
			],
			"extensions":{
				"KHR_materials_emissive_strength":{
					"emissiveStrength":2.0999999046325684
				}
			},
			"name":"Material.006",
			"pbrMetallicRoughness":{
				"baseColorFactor":[
					0,
					0,
					0,
					1
				]
			}
		}
	],
	"meshes":[
		{
			"name":"Cylinder.002",
			"primitives":[
				{
					"attributes":{
						"POSITION":0,
						"NORMAL":1,
						"TEXCOORD_0":2
					},
					"indices":3,
					"material":0
				},
				{
					"attributes":{
						"POSITION":4,
						"NORMAL":5,
						"TEXCOORD_0":6
					},
					"indices":7,
					"material":1
				}
			]
		}
	],
	"accessors":[
		{
			"bufferView":0,
			"componentType":5126,
			"count":790,
			"max":[
				1.9177651405334473,
				11.427218437194824,
				1.9177653789520264
			],
			"min":[
				-1.9177650213241577,
				-9.669227600097656,
				-1.9177658557891846
			],
			"type":"VEC3"
		},
		{
			"bufferView":1,
			"componentType":5126,
			"count":790,
			"type":"VEC3"
		},
		{
			"bufferView":2,
			"componentType":5126,
			"count":790,
			"type":"VEC2"
		},
		{
			"bufferView":3,
			"componentType":5123,
			"count":2484,
			"type":"SCALAR"
		},
		{
			"bufferView":4,
			"componentType":5126,
			"count":198,
			"max":[
				1.440573811531067,
				3.6699600219726562,
				1.440574049949646
			],
			"min":[
				-1.4405736923217773,
				-6.600067138671875,
				-1.4405745267868042
			],
			"type":"VEC3"
		},
		{
			"bufferView":5,
			"componentType":5126,
			"count":198,
			"type":"VEC3"
		},
		{
			"bufferView":6,
			"componentType":5126,
			"count":198,
			"type":"VEC2"
		},
		{
			"bufferView":7,
			"componentType":5123,
			"count":576,
			"type":"SCALAR"
		}
	],
	"bufferViews":[
		{
			"buffer":0,
			"byteLength":9480,
			"byteOffset":0,
			"target":34962
		},
		{
			"buffer":0,
			"byteLength":9480,
			"byteOffset":9480,
			"target":34962
		},
		{
			"buffer":0,
			"byteLength":6320,
			"byteOffset":18960,
			"target":34962
		},
		{
			"buffer":0,
			"byteLength":4968,
			"byteOffset":25280,
			"target":34963
		},
		{
			"buffer":0,
			"byteLength":2376,
			"byteOffset":30248,
			"target":34962
		},
		{
			"buffer":0,
			"byteLength":2376,
			"byteOffset":32624,
			"target":34962
		},
		{
			"buffer":0,
			"byteLength":1584,
			"byteOffset":35000,
			"target":34962
		},
		{
			"buffer":0,
			"byteLength":1152,
			"byteOffset":36584,
			"target":34963
		}
	],
	"buffers":[
		{
			"byteLength":37736,
			"uri":"TechCylinder.bin"
		}
	]
}
