{
	"asset":{
		"generator":"Khronos glTF Blender I/O v4.5.48",
		"version":"2.0"
	},
	"scene":0,
	"scenes":[
		{
			"name":"Scene",
			"nodes":[
				1
			]
		}
	],
	"nodes":[
		{
			"mesh":0,
			"name":"Landscape_plane",
			"translation":[
				0,
				0.00839405506849289,
				0
			]
		},
		{
			"children":[
				0
			],
			"mesh":1,
			"name":"Landscape-col"
		}
	],
	"materials":[
		{
			"doubleSided":true,
			"name":"Material.001",
			"pbrMetallicRoughness":{
				"baseColorFactor":[
					0.12573328614234924,
					0.32494065165519714,
					0.8003851175308228,
					1
				],
				"metallicFactor":0
			}
		},
		{
			"doubleSided":true,
			"name":"Material",
			"normalTexture":{
				"index":0
			},
			"pbrMetallicRoughness":{
				"baseColorTexture":{
					"index":1
				},
				"metallicFactor":0,
				"roughnessFactor":0.8708609342575073
			}
		}
	],
	"meshes":[
		{
			"name":"Landscape_plane",
			"primitives":[
				{
					"attributes":{
						"POSITION":0,
						"NORMAL":1
					},
					"indices":2,
					"material":0
				}
			]
		},
		{
			"name":"Landscape",
			"primitives":[
				{
					"attributes":{
						"POSITION":3,
						"NORMAL":4,
						"TEXCOORD_0":5
					},
					"indices":6,
					"material":1
				}
			]
		}
	],
	"textures":[
		{
			"sampler":0,
			"source":0
		},
		{
			"sampler":0,
			"source":1
		}
	],
	"images":[
		{
			"mimeType":"image/png",
			"name":"Ucupaint Material Normal",
			"uri":"Ucupaint%20Material%20Normal.png"
		},
		{
			"mimeType":"image/png",
			"name":"Ucupaint Material Color",
			"uri":"Ucupaint%20Material%20Color.png"
		}
	],
	"accessors":[
		{
			"bufferView":0,
			"componentType":5126,
			"count":4,
			"max":[
				8.715462684631348,
				0.009999999776482582,
				8.715462684631348
			],
			"min":[
				-8.715462684631348,
				0.009999999776482582,
				-8.715462684631348
			],
			"type":"VEC3"
		},
		{
			"bufferView":1,
			"componentType":5126,
			"count":4,
			"type":"VEC3"
		},
		{
			"bufferView":2,
			"componentType":5123,
			"count":6,
			"type":"SCALAR"
		},
		{
			"bufferView":3,
			"componentType":5126,
			"count":19581,
			"max":[
				1,
				0.130000039935112,
				1
			],
			"min":[
				-1,
				0,
				-1
			],
			"type":"VEC3"
		},
		{
			"bufferView":4,
			"componentType":5126,
			"count":19581,
			"type":"VEC3"
		},
		{
			"bufferView":5,
			"componentType":5126,
			"count":19581,
			"type":"VEC2"
		},
		{
			"bufferView":6,
			"componentType":5123,
			"count":96774,
			"type":"SCALAR"
		}
	],
	"bufferViews":[
		{
			"buffer":0,
			"byteLength":48,
			"byteOffset":0,
			"target":34962
		},
		{
			"buffer":0,
			"byteLength":48,
			"byteOffset":48,
			"target":34962
		},
		{
			"buffer":0,
			"byteLength":12,
			"byteOffset":96,
			"target":34963
		},
		{
			"buffer":0,
			"byteLength":234972,
			"byteOffset":108,
			"target":34962
		},
		{
			"buffer":0,
			"byteLength":234972,
			"byteOffset":235080,
			"target":34962
		},
		{
			"buffer":0,
			"byteLength":156648,
			"byteOffset":470052,
			"target":34962
		},
		{
			"buffer":0,
			"byteLength":193548,
			"byteOffset":626700,
			"target":34963
		}
	],
	"samplers":[
		{
			"magFilter":9729,
			"minFilter":9987
		}
	],
	"buffers":[
		{
			"byteLength":820248,
			"uri":"Landscape.bin"
		}
	]
}
