{
	"asset":{
		"generator":"Khronos glTF Blender I/O v4.5.48",
		"version":"2.0"
	},
	"scene":0,
	"scenes":[
		{
			"name":"Scene",
			"nodes":[
				0
			]
		}
	],
	"nodes":[
		{
			"mesh":0,
			"name":"Landscape2-col"
		}
	],
	"materials":[
		{
			"doubleSided":true,
			"name":"Material",
			"normalTexture":{
				"index":0
			},
			"pbrMetallicRoughness":{
				"baseColorTexture":{
					"index":1
				},
				"metallicFactor":0,
				"roughnessFactor":0.8708609342575073
			}
		}
	],
	"meshes":[
		{
			"name":"Landscape.001",
			"primitives":[
				{
					"attributes":{
						"POSITION":0,
						"NORMAL":1,
						"TEXCOORD_0":2
					},
					"indices":3,
					"material":0
				}
			]
		}
	],
	"textures":[
		{
			"sampler":0,
			"source":0
		},
		{
			"sampler":0,
			"source":1
		}
	],
	"images":[
		{
			"mimeType":"image/png",
			"name":"Ucupaint Material Normal",
			"uri":"Ucupaint%20Material%20Normal.png"
		},
		{
			"mimeType":"image/png",
			"name":"Ucupaint Material Color",
			"uri":"Ucupaint%20Material%20Color.png"
		}
	],
	"accessors":[
		{
			"bufferView":0,
			"componentType":5126,
			"count":19581,
			"max":[
				1,
				0.1354827582836151,
				1
			],
			"min":[
				-1,
				-0.018164150416851044,
				-1
			],
			"type":"VEC3"
		},
		{
			"bufferView":1,
			"componentType":5126,
			"count":19581,
			"type":"VEC3"
		},
		{
			"bufferView":2,
			"componentType":5126,
			"count":19581,
			"type":"VEC2"
		},
		{
			"bufferView":3,
			"componentType":5123,
			"count":96774,
			"type":"SCALAR"
		}
	],
	"bufferViews":[
		{
			"buffer":0,
			"byteLength":234972,
			"byteOffset":0,
			"target":34962
		},
		{
			"buffer":0,
			"byteLength":234972,
			"byteOffset":234972,
			"target":34962
		},
		{
			"buffer":0,
			"byteLength":156648,
			"byteOffset":469944,
			"target":34962
		},
		{
			"buffer":0,
			"byteLength":193548,
			"byteOffset":626592,
			"target":34963
		}
	],
	"samplers":[
		{
			"magFilter":9729,
			"minFilter":9987
		}
	],
	"buffers":[
		{
			"byteLength":820140,
			"uri":"Landscape2.bin"
		}
	]
}
