{
	"asset":{
		"generator":"Khronos glTF Blender I/O v4.5.48",
		"version":"2.0"
	},
	"extensionsUsed":[
		"KHR_materials_emissive_strength"
	],
	"scene":0,
	"scenes":[
		{
			"name":"Scene",
			"nodes":[
				0
			]
		}
	],
	"nodes":[
		{
			"mesh":0,
			"name":"weapon.001",
			"rotation":[
				0,
				0.7071067094802856,
				0,
				0.7071068286895752
			]
		}
	],
	"materials":[
		{
			"doubleSided":true,
			"name":"Material.007",
			"pbrMetallicRoughness":{
				"baseColorFactor":[
					0.11399015784263611,
					0.11399015784263611,
					0.11399015784263611,
					1
				],
				"metallicFactor":0.3703703284263611,
				"roughnessFactor":0.9814814329147339
			}
		},
		{
			"doubleSided":true,
			"emissiveFactor":[
				0.6348374485969543,
				1,
				0.10359165817499161
			],
			"extensions":{
				"KHR_materials_emissive_strength":{
					"emissiveStrength":2.0999999046325684
				}
			},
			"name":"Material.006",
			"pbrMetallicRoughness":{
				"baseColorFactor":[
					0,
					0,
					0,
					1
				]
			}
		}
	],
	"meshes":[
		{
			"name":"Cube.031",
			"primitives":[
				{
					"attributes":{
						"POSITION":0,
						"NORMAL":1,
						"TEXCOORD_0":2
					},
					"indices":3,
					"material":0
				},
				{
					"attributes":{
						"POSITION":4,
						"NORMAL":5,
						"TEXCOORD_0":6
					},
					"indices":7,
					"material":1
				}
			]
		}
	],
	"accessors":[
		{
			"bufferView":0,
			"componentType":5126,
			"count":963,
			"max":[
				0.0590425468981266,
				0.152553990483284,
				0.6580806970596313
			],
			"min":[
				-0.05904258415102959,
				-0.3283093273639679,
				-0.55882328748703
			],
			"type":"VEC3"
		},
		{
			"bufferView":1,
			"componentType":5126,
			"count":963,
			"type":"VEC3"
		},
		{
			"bufferView":2,
			"componentType":5126,
			"count":963,
			"type":"VEC2"
		},
		{
			"bufferView":3,
			"componentType":5123,
			"count":2742,
			"type":"SCALAR"
		},
		{
			"bufferView":4,
			"componentType":5126,
			"count":38,
			"max":[
				0.030391495674848557,
				0.0377359613776207,
				0.353333055973053
			],
			"min":[
				-0.04865323752164841,
				-0.0537308044731617,
				-0.2444336861371994
			],
			"type":"VEC3"
		},
		{
			"bufferView":5,
			"componentType":5126,
			"count":38,
			"type":"VEC3"
		},
		{
			"bufferView":6,
			"componentType":5126,
			"count":38,
			"type":"VEC2"
		},
		{
			"bufferView":7,
			"componentType":5123,
			"count":102,
			"type":"SCALAR"
		}
	],
	"bufferViews":[
		{
			"buffer":0,
			"byteLength":11556,
			"byteOffset":0,
			"target":34962
		},
		{
			"buffer":0,
			"byteLength":11556,
			"byteOffset":11556,
			"target":34962
		},
		{
			"buffer":0,
			"byteLength":7704,
			"byteOffset":23112,
			"target":34962
		},
		{
			"buffer":0,
			"byteLength":5484,
			"byteOffset":30816,
			"target":34963
		},
		{
			"buffer":0,
			"byteLength":456,
			"byteOffset":36300,
			"target":34962
		},
		{
			"buffer":0,
			"byteLength":456,
			"byteOffset":36756,
			"target":34962
		},
		{
			"buffer":0,
			"byteLength":304,
			"byteOffset":37212,
			"target":34962
		},
		{
			"buffer":0,
			"byteLength":204,
			"byteOffset":37516,
			"target":34963
		}
	],
	"buffers":[
		{
			"byteLength":37720,
			"uri":"weapon_001.bin"
		}
	]
}
