{
	"asset":{
		"generator":"Khronos glTF Blender I/O v4.5.48",
		"version":"2.0"
	},
	"extensionsUsed":[
		"KHR_materials_emissive_strength"
	],
	"scene":0,
	"scenes":[
		{
			"name":"Scene",
			"nodes":[
				0
			]
		}
	],
	"nodes":[
		{
			"mesh":0,
			"name":"escapepod-col"
		}
	],
	"materials":[
		{
			"doubleSided":true,
			"name":"Material.001",
			"normalTexture":{
				"index":0
			},
			"pbrMetallicRoughness":{
				"baseColorTexture":{
					"index":1
				},
				"metallicFactor":0,
				"roughnessFactor":0.5
			}
		},
		{
			"doubleSided":true,
			"emissiveFactor":[
				0.6348374485969543,
				1,
				0.10359165817499161
			],
			"extensions":{
				"KHR_materials_emissive_strength":{
					"emissiveStrength":2.0999999046325684
				}
			},
			"name":"Material.002",
			"pbrMetallicRoughness":{
				"baseColorFactor":[
					0,
					0,
					0,
					1
				]
			}
		}
	],
	"meshes":[
		{
			"name":"Cube.001",
			"primitives":[
				{
					"attributes":{
						"POSITION":0,
						"NORMAL":1,
						"TEXCOORD_0":2
					},
					"indices":3,
					"material":0
				},
				{
					"attributes":{
						"POSITION":4,
						"NORMAL":5,
						"TEXCOORD_0":6
					},
					"indices":7,
					"material":1
				}
			]
		}
	],
	"textures":[
		{
			"sampler":0,
			"source":0
		},
		{
			"sampler":0,
			"source":1
		}
	],
	"images":[
		{
			"mimeType":"image/png",
			"name":"bump",
			"uri":"bump.png"
		},
		{
			"mimeType":"image/png",
			"name":"ToBake",
			"uri":"ToBake.png"
		}
	],
	"accessors":[
		{
			"bufferView":0,
			"componentType":5126,
			"count":1817,
			"max":[
				42.80428695678711,
				94.15074920654297,
				131.12335205078125
			],
			"min":[
				-42.80428695678711,
				-2.9958667755126953,
				-117.06957244873047
			],
			"type":"VEC3"
		},
		{
			"bufferView":1,
			"componentType":5126,
			"count":1817,
			"type":"VEC3"
		},
		{
			"bufferView":2,
			"componentType":5126,
			"count":1817,
			"type":"VEC2"
		},
		{
			"bufferView":3,
			"componentType":5123,
			"count":4368,
			"type":"SCALAR"
		},
		{
			"bufferView":4,
			"componentType":5126,
			"count":64,
			"max":[
				33.84291458129883,
				38.23551559448242,
				127.7936782836914
			],
			"min":[
				-33.84291458129883,
				16.10869026184082,
				117.09767150878906
			],
			"type":"VEC3"
		},
		{
			"bufferView":5,
			"componentType":5126,
			"count":64,
			"type":"VEC3"
		},
		{
			"bufferView":6,
			"componentType":5126,
			"count":64,
			"type":"VEC2"
		},
		{
			"bufferView":7,
			"componentType":5123,
			"count":96,
			"type":"SCALAR"
		}
	],
	"bufferViews":[
		{
			"buffer":0,
			"byteLength":21804,
			"byteOffset":0,
			"target":34962
		},
		{
			"buffer":0,
			"byteLength":21804,
			"byteOffset":21804,
			"target":34962
		},
		{
			"buffer":0,
			"byteLength":14536,
			"byteOffset":43608,
			"target":34962
		},
		{
			"buffer":0,
			"byteLength":8736,
			"byteOffset":58144,
			"target":34963
		},
		{
			"buffer":0,
			"byteLength":768,
			"byteOffset":66880,
			"target":34962
		},
		{
			"buffer":0,
			"byteLength":768,
			"byteOffset":67648,
			"target":34962
		},
		{
			"buffer":0,
			"byteLength":512,
			"byteOffset":68416,
			"target":34962
		},
		{
			"buffer":0,
			"byteLength":192,
			"byteOffset":68928,
			"target":34963
		}
	],
	"samplers":[
		{
			"magFilter":9729,
			"minFilter":9987
		}
	],
	"buffers":[
		{
			"byteLength":69120,
			"uri":"escapepod.bin"
		}
	]
}
